# xmcd
#
# Track frame offsets:
#	150
#	21150
#	46800
#	70275
#	91950
#	119925
#	139800
#	165150
#	191175
#	215700
#
# Disc length: 3395 seconds
#
# Revision: 1
# Processed by: cddbd v1.4PL0 Copyright (c) Steve Scherf et al.
# Submitted via: audiograbber 1.82.02
#
DISCID=940d410a
DTITLE=Chris Cobb Band - CC's Blues
DYEAR=1900
DGENRE=Blues
TTITLE0=Tired of Everything
TTITLE1=Work for It
TTITLE2=The Way It Goes
TTITLE3=Givin' Up
TTITLE4=Bad Brain
TTITLE5=Nod
TTITLE6=Bought Up
TTITLE7=Albert's Blues
TTITLE8=Turnin' Your Love
TTITLE9=Heart Full of Trouble
EXTD=
EXTT0=
EXTT1=
EXTT2=
EXTT3=
EXTT4=
EXTT5=
EXTT6=
EXTT7=
EXTT8=
EXTT9=
PLAYORDER=
